<svg width="24" height="24" viewBox="0 0 24 24" fill="none" xmlns="http://www.w3.org/2000/svg">
<g clip-path="url(#clip0_0_23551)">
<mask id="mask0_0_23551" style="mask-type:luminance" maskUnits="userSpaceOnUse" x="0" y="0" width="25" height="24">
<path d="M24.0007 0H0.000732422V24H24.0007V0Z" fill="white"/>
</mask>
<g mask="url(#mask0_0_23551)">
<path d="M15.0005 22.7505H9.00049C3.57049 22.7505 1.25049 20.4305 1.25049 15.0005V9.00049C1.25049 3.57049 3.57049 1.25049 9.00049 1.25049H15.0005C20.4305 1.25049 22.7505 3.57049 22.7505 9.00049V15.0005C22.7505 20.4305 20.4305 22.7505 15.0005 22.7505ZM9.00049 2.75049C4.39049 2.75049 2.75049 4.39049 2.75049 9.00049V15.0005C2.75049 19.6105 4.39049 21.2505 9.00049 21.2505H15.0005C19.6105 21.2505 21.2505 19.6105 21.2505 15.0005V9.00049C21.2505 4.39049 19.6105 2.75049 15.0005 2.75049H9.00049Z" fill="#2496FF"/>
<path d="M6.89014 22.23C6.48014 22.23 6.14014 21.89 6.14014 21.48V2.52002C6.14014 2.11002 6.48014 1.77002 6.89014 1.77002C7.30014 1.77002 7.64014 2.10002 7.64014 2.52002V21.48C7.64014 21.9 7.30014 22.23 6.89014 22.23Z" fill="#2496FF"/>
<path d="M16.8899 22.23C16.4799 22.23 16.1399 21.89 16.1399 21.48V2.52002C16.1399 2.11002 16.4799 1.77002 16.8899 1.77002C17.2999 1.77002 17.6399 2.11002 17.6399 2.52002V21.48C17.6399 21.9 17.2999 22.23 16.8899 22.23Z" fill="#2496FF"/>
<path d="M6.89028 7.72119H2.54028C2.13028 7.72119 1.79028 7.38119 1.79028 6.97119C1.79028 6.56119 2.13028 6.22119 2.54028 6.22119H6.89028C7.30028 6.22119 7.64028 6.56119 7.64028 6.97119C7.64028 7.38119 7.30028 7.72119 6.89028 7.72119Z" fill="#2496FF"/>
<path d="M6.89052 12.7505H2.03052C1.62052 12.7505 1.28052 12.4105 1.28052 12.0005C1.28052 11.5905 1.62052 11.2505 2.03052 11.2505H6.89052C7.30052 11.2505 7.64052 11.5905 7.64052 12.0005C7.64052 12.4105 7.30052 12.7505 6.89052 12.7505Z" fill="#2496FF"/>
<path d="M6.88998 17.7192H2.47998C2.06998 17.7192 1.72998 17.3792 1.72998 16.9692C1.72998 16.5592 2.06998 16.2192 2.47998 16.2192H6.88998C7.29998 16.2192 7.63998 16.5592 7.63998 16.9692C7.63998 17.3792 7.29998 17.7192 6.88998 17.7192Z" fill="#2496FF"/>
<path d="M21.8903 7.72119H17.5403C17.1303 7.72119 16.7903 7.38119 16.7903 6.97119C16.7903 6.56119 17.1303 6.22119 17.5403 6.22119H21.8903C22.3003 6.22119 22.6403 6.56119 22.6403 6.97119C22.6403 7.38119 22.3003 7.72119 21.8903 7.72119Z" fill="#2496FF"/>
<path d="M21.8905 12.7505H17.0305C16.6205 12.7505 16.2805 12.4105 16.2805 12.0005C16.2805 11.5905 16.6205 11.2505 17.0305 11.2505H21.8905C22.3005 11.2505 22.6405 11.5905 22.6405 12.0005C22.6405 12.4105 22.3005 12.7505 21.8905 12.7505Z" fill="#2496FF"/>
<path d="M16.9702 12.7505H5.97021C5.56021 12.7505 5.22021 12.4105 5.22021 12.0005C5.22021 11.5905 5.56021 11.2505 5.97021 11.2505H16.9702C17.3802 11.2505 17.7202 11.5905 17.7202 12.0005C17.7202 12.4105 17.3902 12.7505 16.9702 12.7505Z" fill="#2496FF"/>
<path d="M21.891 17.7192H17.481C17.071 17.7192 16.731 17.3792 16.731 16.9692C16.731 16.5592 17.071 16.2192 17.481 16.2192H21.891C22.301 16.2192 22.641 16.5592 22.641 16.9692C22.641 17.3792 22.301 17.7192 21.891 17.7192Z" fill="#2496FF"/>
</g>
</g>
<defs>
<clipPath id="clip0_0_23551">
<rect width="24" height="24" fill="white"/>
</clipPath>
</defs>
</svg>
